<?xml version="1.0" encoding="utf-8"?>
<!DOCTYPE svg PUBLIC "-//W3C//DTD SVG 20010904//EN" "http://www.w3.org/TR/2001/REC-SVG-20010904/DTD/svg10.dtd">
<svg version="1.0" xmlns="http://www.w3.org/2000/svg" width="1026pt" height="1026pt" viewBox="0 0 1026 1026" preserveAspectRatio="xMidYMid meet">
<g fill="#154E83FF">
<path d="M 201.50 596.97 C 182.00 593.92 166.64 579.21 163.02 560.11 C 162.37 556.68 162.00 519.54 162.01 457.61 C 162.02 352.56 161.88 355.50 167.46 345.26 C 170.99 338.76 179.32 330.38 185.23 327.39 C 195.96 321.94 193.96 322.03 307.36 322.01 C 397.05 322.00 413.04 322.22 417.96 323.49 C 434.13 327.68 446.84 341.34 449.98 357.89 C 451.38 365.30 451.35 550.19 449.95 559.00 C 447.70 573.03 438.23 586.30 426.05 592.48 C 415.11 598.02 416.09 597.97 307.00 597.86 C 251.72 597.80 204.25 597.40 201.50 596.97ZM 419.43 594.25 C 426.31 591.67 433.31 587.31 432.55 586.08 C 432.26 585.61 432.80 585.29 433.76 585.36 C 434.72 585.44 435.38 584.91 435.23 584.18 C 435.07 583.45 435.38 583.12 435.91 583.44 C 438.73 585.19 447.52 567.63 448.90 557.50 C 450.23 547.78 450.32 369.34 449.01 360.04 C 447.27 347.77 439.83 335.76 430.33 329.89 C 427.43 328.10 426.70 328.00 425.22 329.15 C 423.70 330.35 423.64 330.31 424.77 328.88 C 425.85 327.49 425.63 327.09 423.27 326.13 C 416.17 323.25 406.97 323.00 306.26 323.00 C 214.89 323.00 202.07 323.19 196.64 324.59 C 193.26 325.47 189.82 326.61 189.00 327.14 C 187.91 327.83 188.19 327.93 190.00 327.48 C 191.90 327.02 192.14 327.12 191.01 327.89 C 190.19 328.46 188.59 328.69 187.47 328.40 C 184.68 327.70 179.25 331.86 181.17 333.23 C 182.13 333.93 181.98 334.02 180.61 333.57 C 178.54 332.90 174.68 335.67 175.60 337.16 C 175.90 337.65 175.62 337.93 174.97 337.77 C 173.01 337.32 167.52 346.23 165.17 353.70 L 162.94 360.73 L 163.26 460.62 C 163.52 540.06 163.86 561.37 164.91 564.74 C 165.67 567.17 166.68 568.70 167.27 568.33 C 167.86 567.97 168.01 568.17 167.62 568.81 C 165.43 572.36 177.85 586.63 187.22 591.33 C 198.14 596.82 198.53 596.84 310.50 596.65 L 413.50 596.47 L 419.43 594.25ZM 308.83 568.08 C 305.60 565.54 304.27 565.38 306.13 567.75 C 307.37 569.33 307.33 569.37 305.76 568.14 C 304.80 567.39 304.23 566.43 304.49 566.02 C 305.09 565.05 302.37 562.68 298.24 560.59 C 287.52 555.16 221.96 543.23 209.50 544.45 C 206.20 544.77 202.99 544.69 202.36 544.27 C 201.73 543.84 204.66 543.39 208.86 543.25 C 218.04 542.95 244.57 546.62 268.50 551.50 C 291.63 556.22 299.56 559.04 306.27 564.93 C 311.34 569.39 313.69 569.57 320.02 566.03 C 323.03 564.35 327.49 562.06 329.92 560.95 C 334.87 558.68 362.16 552.08 390.00 546.41 C 400.18 544.34 408.83 542.16 409.23 541.57 C 409.64 540.98 409.98 513.67 409.98 480.87 C 410.00 431.16 409.77 421.05 408.61 420.09 C 407.68 419.32 403.12 419.03 394.86 419.22 L 382.50 419.50 L 382.00 466.77 L 381.50 514.04 L 371.64 517.48 C 355.67 523.04 332.19 535.31 318.46 545.28 L 313.84 548.63 L 310.17 545.21 C 300.22 535.95 280.86 523.23 265.07 515.57 C 251.20 508.84 246.24 509.19 228.60 518.12 C 224.14 520.37 219.09 523.07 217.36 524.12 L 214.22 526.03 L 214.08 515.26 L 213.93 504.50 L 252.87 465.65 C 295.16 423.46 292.55 425.47 299.00 430.03 C 303.51 433.22 315.00 445.77 315.00 447.50 C 315.00 451.70 318.19 455.91 322.66 457.62 C 327.00 459.27 327.29 459.26 331.41 457.25 C 334.44 455.78 336.04 454.21 336.93 451.84 C 337.61 450.00 338.69 447.54 339.33 446.37 C 341.00 443.32 391.06 392.22 396.66 387.85 L 401.33 384.20 L 405.62 388.68 C 412.80 396.17 413.41 395.29 414.04 376.49 L 414.58 360.50 L 414.79 376.73 L 415.00 392.96 L 412.42 393.61 C 410.30 394.14 409.09 393.52 405.63 390.13 C 403.32 387.86 401.03 386.00 400.55 386.00 C 398.87 386.00 354.09 431.33 354.70 432.41 C 355.04 433.01 354.95 433.17 354.50 432.76 C 353.59 431.93 351.00 433.72 351.00 435.18 C 351.00 435.70 351.56 435.78 352.25 435.37 C 353.10 434.86 353.06 435.16 352.13 436.31 C 350.64 438.14 349.49 438.63 350.50 437.00 C 350.84 436.45 350.70 436.00 350.18 436.00 C 348.37 436.00 339.89 446.30 339.31 449.21 C 337.78 456.84 328.19 461.89 321.38 458.65 C 318.01 457.04 314.01 451.83 314.00 449.05 C 314.00 446.67 308.78 439.87 307.37 440.41 C 306.65 440.69 305.76 440.41 305.38 439.80 C 304.96 439.13 305.15 438.97 305.85 439.40 C 308.83 441.25 306.49 438.02 301.76 433.77 C 298.26 430.62 295.59 429.04 293.78 429.02 C 290.51 429.00 283.64 434.63 284.44 436.70 C 284.76 437.53 284.54 437.83 283.91 437.45 C 282.46 436.55 277.81 441.07 278.46 442.75 C 278.76 443.54 278.53 443.83 277.91 443.44 C 276.40 442.51 250.64 468.61 251.57 470.12 C 252.03 470.86 251.88 471.05 251.17 470.61 C 249.82 469.77 233.78 484.83 234.60 486.16 C 234.90 486.65 234.76 486.93 234.28 486.77 C 233.80 486.62 231.07 488.71 228.21 491.41 C 223.81 495.57 223.21 496.56 224.26 497.91 C 225.33 499.28 225.28 499.33 223.92 498.27 C 222.61 497.25 221.83 497.58 219.24 500.27 C 216.25 503.37 216.12 503.89 215.81 513.25 C 215.64 518.62 215.88 523.00 216.34 523.00 C 218.12 523.00 232.85 514.56 232.39 513.81 C 232.12 513.38 232.52 513.26 233.27 513.55 C 234.03 513.84 236.79 513.16 239.41 512.04 C 245.79 509.31 254.73 509.31 260.10 512.05 C 262.51 513.28 264.99 513.85 266.31 513.48 C 267.74 513.08 268.06 513.18 267.22 513.76 C 266.27 514.42 266.61 514.96 268.55 515.84 C 269.98 516.49 271.64 516.73 272.23 516.36 C 272.84 515.98 273.02 516.15 272.65 516.76 C 272.28 517.36 273.99 518.94 276.62 520.41 C 281.78 523.30 282.42 523.49 281.44 521.90 C 280.95 521.12 281.31 521.09 282.67 521.82 C 283.72 522.39 285.46 522.77 286.54 522.67 C 287.64 522.58 288.39 523.05 288.25 523.75 C 288.11 524.44 288.52 525.00 289.17 525.00 C 289.81 525.00 290.07 525.26 289.75 525.58 C 289.43 525.90 288.19 525.64 287.00 525.00 C 285.81 524.36 284.63 524.04 284.38 524.28 C 284.14 524.53 286.99 526.70 290.72 529.11 C 294.45 531.53 300.95 536.27 305.17 539.66 C 309.39 543.05 313.17 545.53 313.58 545.16 C 313.99 544.80 314.00 545.06 313.60 545.75 C 312.34 547.94 314.82 547.10 318.22 544.19 C 320.02 542.64 325.25 539.20 329.83 536.55 C 335.99 532.97 337.81 531.47 336.83 530.76 C 335.87 530.07 336.02 529.98 337.38 530.43 C 338.54 530.80 341.25 529.92 344.38 528.16 C 351.46 524.18 363.01 519.15 372.40 515.96 L 380.29 513.28 L 380.23 465.78 L 380.16 418.29 L 394.16 418.08 C 403.74 417.94 408.60 418.25 409.57 419.06 C 410.78 420.06 411.00 429.62 411.00 481.00 C 411.00 528.39 410.72 541.98 409.75 542.79 C 409.06 543.35 400.62 545.41 390.98 547.36 C 353.62 554.93 334.63 559.76 326.72 563.72 C 323.00 565.58 320.15 567.44 320.40 567.84 C 320.65 568.24 320.10 568.65 319.18 568.74 C 318.25 568.84 316.14 569.20 314.49 569.54 C 312.27 569.99 310.77 569.60 308.83 568.08ZM 199.64 538.25 C 199.30 536.19 199.02 526.15 199.01 515.94 L 199.00 497.37 L 213.95 482.51 C 222.18 474.34 228.63 467.21 228.30 466.67 C 227.96 466.12 228.20 466.01 228.87 466.42 C 230.12 467.19 236.50 460.73 236.50 458.68 C 236.50 458.03 237.29 457.50 238.26 457.50 C 239.23 457.50 241.09 456.16 242.39 454.53 C 244.57 451.81 244.63 451.44 243.13 450.22 C 241.72 449.07 241.79 449.03 243.70 449.95 C 245.64 450.89 246.61 450.32 252.03 445.05 C 255.84 441.35 257.89 438.63 257.43 437.89 C 256.95 437.12 257.12 436.95 257.89 437.43 C 259.44 438.39 270.22 428.01 269.53 426.21 C 269.23 425.45 269.47 425.18 270.10 425.56 C 271.75 426.58 279.82 418.11 280.55 414.58 C 280.91 412.89 282.07 409.98 283.13 408.13 C 284.67 405.47 284.76 404.88 283.57 405.33 C 282.74 405.65 281.79 405.47 281.46 404.93 C 281.12 404.39 281.22 404.06 281.68 404.19 C 282.13 404.32 283.62 403.81 285.00 403.05 C 287.29 401.79 287.39 401.81 286.13 403.34 C 284.70 405.06 285.88 405.69 287.55 404.10 C 288.78 402.93 298.00 402.23 298.00 403.31 C 298.00 403.76 298.79 403.89 299.75 403.59 C 300.71 403.29 302.18 403.51 303.00 404.09 C 304.14 404.88 303.90 404.96 302.00 404.44 L 299.50 403.74 L 302.18 406.26 C 303.66 407.64 305.36 410.62 305.96 412.87 C 306.75 415.77 308.38 418.05 311.62 420.73 C 314.12 422.80 316.58 424.39 317.09 424.25 C 317.59 424.11 317.89 424.56 317.75 425.25 C 317.61 425.94 318.10 426.38 318.82 426.23 C 319.55 426.07 319.91 426.34 319.61 426.82 C 318.97 427.86 323.69 432.42 326.39 433.38 C 328.46 434.11 332.34 431.36 331.40 429.84 C 331.10 429.35 331.45 429.07 332.18 429.23 C 332.90 429.38 333.38 428.90 333.23 428.18 C 333.07 427.45 333.35 427.10 333.84 427.40 C 335.00 428.12 338.23 424.56 337.28 423.62 C 336.89 423.22 337.33 423.19 338.28 423.55 C 339.85 424.16 340.50 423.17 340.12 420.75 C 340.05 420.34 340.34 420.11 340.75 420.24 C 342.30 420.74 346.21 417.15 345.45 415.93 C 344.98 415.15 345.10 414.95 345.80 415.37 C 347.23 416.26 355.60 407.20 355.17 405.22 C 354.97 404.27 355.37 403.93 356.28 404.28 C 357.97 404.93 373.47 389.80 372.31 388.64 C 371.90 388.23 372.41 388.22 373.45 388.62 C 374.97 389.20 375.21 389.00 374.69 387.62 C 374.32 386.67 374.40 386.13 374.87 386.42 C 375.34 386.71 377.36 385.31 379.36 383.31 C 381.36 381.30 383.00 380.08 383.00 380.59 C 383.00 381.10 370.90 393.61 356.11 408.39 C 330.83 433.65 329.05 435.23 326.40 434.56 C 323.27 433.78 305.00 416.45 305.00 414.27 C 305.00 411.47 301.87 406.98 298.82 405.41 C 291.90 401.83 282.00 406.81 282.00 413.86 C 282.00 416.69 268.59 430.52 214.15 483.82 L 199.81 497.87 L 200.49 519.93 C 200.87 532.07 200.97 542.00 200.72 542.00 C 200.47 542.00 199.98 540.31 199.64 538.25ZM 309.11 532.97 C 306.81 531.30 304.42 530.24 303.81 530.62 C 303.08 531.07 302.98 530.85 303.51 529.98 C 304.12 528.99 303.86 528.84 302.44 529.38 C 301.41 529.78 300.87 529.80 301.25 529.42 C 301.62 529.04 298.80 526.53 294.97 523.84 L 288.00 518.95 L 288.00 501.05 C 288.00 485.85 288.25 482.90 289.63 481.52 C 291.90 479.24 316.55 479.66 318.02 482.00 C 318.55 482.84 318.98 494.75 318.98 509.14 C 319.00 531.61 318.80 534.86 317.42 535.39 C 314.67 536.45 313.41 536.08 309.11 532.97ZM 316.77 534.16 C 317.75 533.54 317.97 527.61 317.77 507.93 L 317.50 482.50 L 304.50 481.92 C 296.89 481.59 290.98 481.74 290.25 482.30 C 289.33 482.99 289.00 487.95 289.00 500.89 L 289.00 518.53 L 301.25 526.73 C 313.86 535.17 314.62 535.53 316.77 534.16ZM 335.60 525.11 C 334.22 523.58 334.00 519.63 334.00 495.78 C 334.00 471.02 334.18 468.00 335.75 466.07 C 337.41 464.04 338.22 463.94 351.00 464.21 L 364.50 464.50 L 364.77 489.68 L 365.03 514.85 L 362.77 515.57 C 361.52 515.96 356.23 518.29 351.00 520.74 C 337.21 527.21 337.44 527.14 335.60 525.11ZM 346.07 521.86 C 349.61 520.13 354.98 517.69 358.00 516.45 L 363.50 514.18 L 363.50 489.84 L 363.50 465.50 L 350.90 465.22 C 341.11 465.00 338.04 465.25 337.14 466.33 C 335.55 468.25 334.85 523.74 336.41 524.39 C 338.54 525.27 339.72 524.96 346.07 521.86Z"/></g>
<g fill="#186CACFF">
<path d="M 202.50 595.88 C 199.75 595.40 196.38 595.24 195.00 595.53 C 192.99 595.96 192.79 595.84 194.00 594.94 C 195.23 594.03 195.09 593.92 193.25 594.32 C 192.01 594.59 191.25 594.41 191.56 593.91 C 192.07 593.08 190.41 592.62 187.29 592.72 C 186.62 592.75 186.17 592.26 186.29 591.63 C 186.41 591.01 185.72 590.56 184.76 590.64 C 183.80 590.71 183.29 590.34 183.61 589.82 C 183.94 589.30 183.37 589.01 182.35 589.18 C 181.30 589.36 180.60 588.97 180.74 588.28 C 180.96 587.17 177.19 584.43 176.00 584.83 C 175.72 584.92 175.48 584.66 175.46 584.25 C 175.38 582.47 172.84 579.04 171.77 579.26 C 171.12 579.39 170.55 579.05 170.50 578.50 C 170.25 575.92 168.76 573.03 167.94 573.54 C 167.43 573.85 167.32 573.33 167.68 572.39 C 168.15 571.16 167.98 570.90 167.07 571.46 C 166.06 572.08 166.04 571.79 167.00 570.00 C 167.79 568.52 167.83 567.99 167.10 568.44 C 166.47 568.83 166.00 568.42 166.00 567.50 C 166.00 566.61 165.66 566.09 165.25 566.35 C 164.84 566.60 164.35 565.61 164.17 564.15 C 163.50 558.75 162.52 358.21 163.17 358.60 C 163.54 358.83 164.16 357.55 164.55 355.76 C 164.94 353.97 166.28 350.17 167.54 347.33 C 168.79 344.48 169.52 341.82 169.16 341.42 C 168.80 341.01 169.04 340.99 169.70 341.37 C 170.39 341.76 171.36 341.19 171.99 340.03 C 172.58 338.91 172.76 338.00 172.38 338.00 C 172.00 338.00 172.49 337.12 173.46 336.04 C 174.44 334.96 175.73 334.17 176.32 334.29 C 176.92 334.41 177.43 333.97 177.45 333.33 C 177.48 332.69 177.91 331.79 178.41 331.33 C 178.93 330.86 179.04 330.99 178.67 331.65 C 178.31 332.28 178.72 333.06 179.59 333.40 C 181.85 334.26 182.73 334.11 181.17 333.12 C 180.14 332.47 180.41 331.82 182.38 330.27 C 183.78 329.17 184.62 327.95 184.24 327.57 C 183.85 327.19 184.81 327.36 186.35 327.94 C 188.32 328.69 189.66 328.70 190.83 327.96 C 192.18 327.11 192.02 327.02 190.00 327.52 C 188.08 327.99 187.85 327.89 189.00 327.09 C 189.82 326.52 192.88 325.51 195.79 324.86 C 199.49 324.02 200.69 323.39 199.79 322.74 C 198.86 322.07 198.99 321.97 200.26 322.38 C 201.22 322.69 250.84 322.98 310.53 323.03 C 388.27 323.09 418.85 323.43 418.37 324.20 C 417.93 324.92 418.59 325.12 420.32 324.79 C 421.76 324.51 422.73 324.63 422.48 325.04 C 421.82 326.10 424.94 327.14 426.34 326.33 C 426.98 325.96 426.60 326.70 425.50 327.98 L 423.50 330.31 L 426.50 328.46 C 428.15 327.44 429.17 326.99 428.76 327.46 C 427.87 328.49 431.63 331.35 432.87 330.58 C 433.74 330.05 436.58 332.63 437.18 334.50 C 437.36 335.05 437.87 335.38 438.32 335.23 C 438.78 335.07 438.88 335.38 438.56 335.91 C 437.95 336.89 439.73 338.46 441.50 338.48 C 442.05 338.49 442.54 339.18 442.60 340.00 C 442.91 344.80 443.07 345.19 444.45 344.66 C 445.47 344.27 445.71 344.58 445.28 345.71 C 444.83 346.88 445.03 347.10 445.98 346.51 C 446.87 345.96 447.07 346.08 446.59 346.85 C 445.76 348.20 446.81 352.23 447.82 351.62 C 449.26 350.74 449.50 366.69 449.45 461.50 C 449.40 549.81 449.23 559.99 447.74 564.42 C 446.84 567.13 446.37 569.78 446.70 570.33 C 447.04 570.87 446.80 570.99 446.15 570.60 C 445.52 570.20 445.00 570.27 445.00 570.75 C 445.00 571.23 443.46 574.18 441.57 577.31 C 439.69 580.44 438.39 583.00 438.70 583.00 C 439.00 583.00 438.72 583.63 438.08 584.41 C 437.43 585.18 435.82 585.69 434.48 585.55 C 433.15 585.40 432.28 585.64 432.54 586.07 C 432.81 586.51 432.57 587.15 432.00 587.50 C 431.43 587.85 431.27 588.63 431.64 589.22 C 432.04 589.87 431.84 590.02 431.16 589.60 C 429.80 588.76 425.68 591.35 426.73 592.39 C 427.12 592.78 426.59 592.78 425.56 592.38 C 424.14 591.84 423.88 591.99 424.49 592.98 C 425.04 593.87 424.92 594.07 424.15 593.59 C 422.72 592.71 418.78 593.84 419.46 594.93 C 419.72 595.36 418.72 595.52 417.22 595.28 C 415.34 594.98 414.91 595.13 415.83 595.78 C 417.54 596.99 209.36 597.09 202.50 595.88ZM 316.41 569.40 C 317.28 569.06 317.71 568.34 317.37 567.80 C 316.99 567.18 317.50 567.20 318.71 567.85 C 320.22 568.65 320.67 568.57 320.67 567.49 C 320.67 566.72 320.22 566.36 319.68 566.70 C 319.14 567.03 319.00 566.81 319.38 566.20 C 319.76 565.59 320.80 565.37 321.70 565.71 C 322.78 566.13 323.09 565.95 322.61 565.18 C 322.13 564.40 322.46 564.24 323.61 564.68 C 324.87 565.16 325.11 564.99 324.51 564.02 C 323.94 563.10 324.08 562.93 324.94 563.46 C 326.33 564.32 331.19 562.12 330.48 560.96 C 330.23 560.56 330.58 560.29 331.26 560.36 C 333.38 560.60 344.98 557.77 344.58 557.12 C 344.37 556.78 345.92 556.48 348.03 556.45 C 350.14 556.43 351.64 556.77 351.37 557.20 C 351.10 557.64 351.41 558.00 352.06 558.00 C 352.73 558.00 353.02 557.17 352.73 556.07 C 352.39 554.76 352.65 554.31 353.55 554.66 C 355.64 555.46 375.01 550.82 374.31 549.69 C 373.95 549.11 374.20 549.01 374.92 549.45 C 376.36 550.34 385.23 549.19 384.62 548.19 C 384.39 547.81 385.84 547.48 387.85 547.45 C 393.31 547.36 409.01 543.83 408.39 542.83 C 408.09 542.34 408.45 542.07 409.18 542.23 C 411.01 542.61 411.66 421.50 409.84 419.31 C 408.91 418.18 405.68 417.93 394.41 418.08 L 380.16 418.28 L 380.23 465.89 C 380.29 509.48 380.16 513.53 378.64 513.83 C 377.72 514.00 377.23 514.56 377.54 515.06 C 377.85 515.57 377.40 515.71 376.53 515.37 C 374.40 514.55 362.85 518.95 363.67 520.27 C 364.05 520.89 363.82 521.01 363.09 520.56 C 361.60 519.64 355.82 521.89 356.56 523.10 C 356.86 523.58 356.33 523.68 355.39 523.32 C 354.23 522.87 353.91 523.04 354.39 523.82 C 354.85 524.56 354.58 524.78 353.64 524.42 C 351.63 523.64 345.76 526.80 346.62 528.20 C 347.02 528.84 346.86 529.03 346.24 528.65 C 344.94 527.84 341.83 528.92 342.48 529.96 C 342.73 530.38 341.29 530.59 339.27 530.43 C 337.25 530.27 336.03 530.44 336.55 530.82 C 338.25 532.04 338.08 533.97 336.32 533.29 C 335.30 532.90 334.92 533.06 335.33 533.72 C 335.70 534.32 335.23 534.72 334.24 534.64 C 333.28 534.56 332.62 535.09 332.77 535.82 C 332.93 536.55 332.60 536.87 332.05 536.53 C 330.69 535.69 326.79 537.86 327.52 539.04 C 327.85 539.57 327.36 539.69 326.39 539.32 C 325.23 538.87 324.91 539.04 325.39 539.82 C 325.84 540.54 325.59 540.78 324.73 540.45 C 323.05 539.80 317.76 543.80 318.56 545.10 C 318.89 545.62 318.78 545.99 318.32 545.91 C 316.35 545.56 314.93 546.07 315.46 546.93 C 315.77 547.44 315.51 548.19 314.86 548.59 C 314.08 549.07 313.96 548.87 314.51 547.98 C 315.12 547.00 314.86 546.84 313.52 547.35 C 312.02 547.93 311.92 547.80 312.95 546.56 C 313.98 545.32 313.83 545.15 312.06 545.49 C 310.90 545.71 310.17 545.53 310.45 545.08 C 311.12 543.99 307.64 540.92 305.34 540.58 C 304.33 540.43 303.50 539.83 303.50 539.25 C 303.50 537.55 298.14 533.80 296.86 534.59 C 296.15 535.03 295.96 534.87 296.37 534.20 C 297.08 533.07 293.76 530.70 292.63 531.54 C 292.28 531.79 292.23 531.70 292.51 531.33 C 293.26 530.33 287.80 527.01 286.56 527.72 C 285.98 528.05 285.85 527.94 286.27 527.47 C 287.30 526.35 278.22 520.74 276.80 521.62 C 276.19 522.00 275.97 521.86 276.31 521.30 C 276.66 520.75 275.80 519.77 274.41 519.14 C 272.91 518.46 272.17 517.53 272.60 516.84 C 273.02 516.16 272.87 515.96 272.23 516.36 C 271.64 516.73 269.98 516.49 268.55 515.84 C 266.95 515.11 266.38 514.39 267.06 513.97 C 267.67 513.59 266.89 513.23 265.33 513.17 C 260.25 512.98 258.14 512.58 258.57 511.89 C 259.91 509.72 245.98 509.26 241.10 511.32 C 239.38 512.04 238.20 512.86 238.48 513.15 C 238.76 513.43 237.45 513.61 235.57 513.55 C 233.69 513.48 232.37 513.79 232.63 514.22 C 232.90 514.65 232.53 515.01 231.81 515.02 C 230.85 515.03 230.90 515.32 232.00 516.11 C 233.28 517.03 233.25 517.11 231.80 516.65 C 229.73 515.98 223.76 518.80 224.54 520.07 C 224.85 520.57 224.33 520.68 223.39 520.32 C 222.23 519.87 221.91 520.04 222.39 520.82 C 222.87 521.60 222.54 521.76 221.39 521.32 C 220.23 520.87 219.91 521.04 220.39 521.82 C 220.87 522.60 220.54 522.76 219.39 522.32 C 218.44 521.95 217.93 522.07 218.24 522.58 C 218.55 523.09 217.75 523.50 216.45 523.50 C 214.97 523.50 214.45 523.15 215.05 522.55 C 215.57 522.03 216.00 517.47 216.00 512.42 C 216.00 505.51 216.37 502.94 217.49 502.01 C 218.31 501.33 218.69 500.30 218.33 499.73 C 217.98 499.15 218.17 498.99 218.78 499.36 C 219.87 500.04 221.46 498.36 221.48 496.50 C 221.49 495.95 222.18 495.48 223.00 495.45 C 223.82 495.43 224.39 494.87 224.25 494.20 C 224.11 493.54 224.54 493.11 225.20 493.25 C 225.87 493.39 226.43 492.82 226.45 492.00 C 226.48 491.18 227.05 490.50 227.72 490.50 C 228.39 490.50 229.96 489.61 231.22 488.52 C 232.47 487.43 233.81 486.63 234.19 486.75 C 234.57 486.86 234.71 486.08 234.50 485.00 C 234.29 483.92 234.49 483.14 234.93 483.27 C 235.38 483.40 238.96 480.44 242.90 476.71 C 247.00 472.82 250.54 470.22 251.18 470.61 C 251.85 471.02 252.03 470.86 251.64 470.22 C 251.26 469.62 252.74 467.20 254.91 464.85 C 257.08 462.50 258.59 460.15 258.27 459.63 C 257.95 459.12 258.15 458.97 258.71 459.32 C 259.27 459.67 263.59 456.10 268.31 451.38 C 273.02 446.66 277.35 443.10 277.93 443.46 C 278.53 443.83 278.76 443.53 278.46 442.75 C 277.81 441.07 282.46 436.55 283.91 437.45 C 284.55 437.84 284.75 437.52 284.42 436.65 C 284.11 435.86 284.35 434.90 284.95 434.53 C 285.54 434.16 285.77 433.43 285.44 432.91 C 285.12 432.38 285.43 432.07 286.13 432.23 C 286.83 432.38 287.44 431.82 287.48 431.00 C 287.52 430.11 288.29 429.63 289.37 429.82 C 290.38 429.99 290.97 429.77 290.69 429.32 C 290.42 428.87 292.06 428.55 294.34 428.61 C 296.63 428.68 298.50 429.21 298.50 429.81 C 298.50 430.40 299.49 431.81 300.71 432.94 C 303.13 435.20 304.53 435.67 303.40 433.85 C 302.96 433.12 303.13 432.96 303.86 433.41 C 304.51 433.81 304.81 434.51 304.53 434.96 C 304.25 435.41 304.69 436.33 305.51 437.01 C 307.26 438.46 307.53 440.45 305.85 439.40 C 305.15 438.97 304.96 439.13 305.38 439.80 C 305.76 440.41 306.65 440.69 307.37 440.41 C 308.90 439.82 313.48 446.24 314.41 450.29 C 314.77 451.83 315.44 452.84 315.92 452.55 C 316.39 452.26 316.71 452.80 316.64 453.76 C 316.56 454.72 317.09 455.38 317.82 455.23 C 318.55 455.07 318.88 455.39 318.54 455.93 C 318.21 456.47 319.28 457.61 320.92 458.46 C 324.24 460.18 329.46 460.56 328.51 459.01 C 328.16 458.46 328.54 458.27 329.37 458.59 C 332.58 459.82 337.99 454.47 339.39 448.67 C 339.92 446.51 339.77 446.01 338.79 446.58 C 338.04 447.01 337.85 446.94 338.33 446.41 C 338.79 445.91 339.37 445.63 339.62 445.79 C 340.45 446.31 343.14 443.03 342.59 442.15 C 342.30 441.68 343.17 440.25 344.53 438.97 C 345.89 437.70 347.00 437.04 347.00 437.53 C 347.00 438.01 347.54 437.86 348.20 437.20 C 349.65 435.75 351.37 435.60 350.50 437.00 C 349.49 438.63 350.64 438.14 352.13 436.31 C 353.06 435.16 353.10 434.86 352.25 435.37 C 351.55 435.79 351.00 435.63 351.00 435.00 C 351.00 434.39 350.44 434.20 349.75 434.60 C 349.06 434.99 349.82 433.89 351.43 432.17 C 353.04 430.44 354.58 429.24 354.85 429.51 C 355.54 430.20 359.05 426.89 358.52 426.04 C 358.29 425.65 360.65 422.90 363.77 419.92 C 366.90 416.94 368.34 415.85 366.98 417.50 L 364.51 420.50 L 367.72 417.60 C 369.48 416.00 370.74 414.38 370.50 414.00 C 370.04 413.26 375.23 407.91 376.66 407.65 C 377.12 407.57 377.38 407.13 377.23 406.68 C 377.07 406.22 377.36 406.10 377.86 406.41 C 379.07 407.16 381.19 404.55 380.24 403.50 C 379.83 403.05 379.98 402.95 380.57 403.29 C 381.78 403.97 396.40 389.74 395.46 388.80 C 395.14 388.47 395.42 387.86 396.09 387.45 C 396.87 386.96 397.05 387.11 396.60 387.85 C 395.61 389.44 396.85 389.30 398.52 387.62 C 399.28 386.86 399.59 385.90 399.20 385.48 C 398.82 385.07 399.40 385.20 400.50 385.77 C 401.60 386.34 402.84 386.85 403.25 386.90 C 403.66 386.96 403.96 387.27 403.90 387.59 C 403.68 388.92 409.51 394.00 411.25 394.00 C 412.28 394.00 412.84 393.56 412.51 393.01 C 412.16 392.44 412.56 392.28 413.45 392.62 C 414.81 393.14 415.00 391.26 415.00 377.14 C 415.00 362.56 414.85 361.12 413.34 361.70 C 412.39 362.06 411.93 361.93 412.26 361.39 C 412.89 360.36 396.19 360.67 387.54 361.84 C 382.95 362.47 382.53 362.76 381.92 365.74 C 381.56 367.51 381.60 368.75 382.02 368.49 C 382.43 368.23 383.33 368.69 384.00 369.50 C 384.67 370.31 385.57 370.76 386.00 370.50 C 386.92 369.93 389.33 372.64 389.61 374.57 C 389.72 375.32 389.29 375.84 388.66 375.72 C 388.02 375.60 387.62 376.10 387.77 376.82 C 387.93 377.55 387.62 377.88 387.09 377.56 C 386.57 377.23 385.43 377.97 384.57 379.21 C 383.71 380.44 383.00 381.04 383.00 380.56 C 383.00 380.07 381.36 381.30 379.36 383.31 C 377.36 385.31 375.34 386.71 374.87 386.42 C 374.40 386.13 374.32 386.67 374.69 387.62 C 375.19 388.94 374.96 389.20 373.69 388.71 C 372.77 388.36 372.13 388.47 372.26 388.95 C 372.65 390.37 346.83 416.01 345.71 415.32 C 345.10 414.95 345.00 415.19 345.45 415.93 C 346.21 417.15 342.30 420.74 340.75 420.24 C 340.34 420.11 340.05 420.34 340.12 420.75 C 340.50 423.17 339.85 424.16 338.28 423.55 C 337.33 423.19 336.89 423.22 337.28 423.62 C 338.23 424.56 335.00 428.12 333.84 427.40 C 333.35 427.10 333.07 427.45 333.23 428.18 C 333.38 428.90 332.90 429.38 332.18 429.23 C 331.45 429.07 331.10 429.35 331.40 429.84 C 332.34 431.36 328.46 434.11 326.39 433.38 C 323.69 432.42 318.97 427.86 319.61 426.82 C 319.91 426.34 319.55 426.07 318.82 426.23 C 318.09 426.38 317.65 425.83 317.83 425.00 C 318.02 424.18 317.85 423.82 317.46 424.21 C 317.07 424.60 315.23 423.75 313.38 422.34 C 311.52 420.92 310.00 420.11 310.00 420.54 C 310.00 420.96 309.11 420.51 308.02 419.52 C 306.94 418.54 306.24 417.41 306.49 417.02 C 307.44 415.48 304.69 408.62 302.17 406.25 L 299.50 403.74 L 302.00 404.44 C 303.90 404.96 304.14 404.88 303.00 404.09 C 302.18 403.51 300.71 403.29 299.75 403.59 C 298.79 403.89 298.00 403.75 298.00 403.29 C 298.00 402.82 295.64 402.69 292.75 402.99 C 289.43 403.33 287.59 403.97 287.74 404.73 C 287.87 405.39 287.38 405.70 286.65 405.42 C 284.93 404.76 282.60 407.55 283.57 409.11 C 284.02 409.85 283.89 410.05 283.21 409.63 C 282.53 409.21 281.70 410.40 281.06 412.72 C 279.71 417.60 279.73 418.27 281.25 417.40 C 281.94 417.00 281.43 417.86 280.12 419.29 C 278.81 420.73 277.23 421.82 276.62 421.71 C 276.00 421.59 275.62 422.10 275.77 422.82 C 275.93 423.55 275.64 423.90 275.14 423.59 C 274.15 422.98 271.70 425.37 272.50 426.16 C 272.76 426.43 271.54 427.96 269.78 429.57 C 268.02 431.18 267.18 431.71 267.91 430.75 C 269.95 428.07 268.65 428.67 265.92 431.66 C 264.59 433.12 264.18 433.94 265.00 433.47 C 266.29 432.73 266.31 432.85 265.13 434.31 C 263.64 436.14 262.49 436.63 263.50 435.00 C 263.84 434.45 263.64 434.00 263.06 434.00 C 262.11 434.00 261.61 435.32 261.85 437.16 C 261.90 437.52 260.90 437.70 259.62 437.56 C 257.73 437.36 257.36 437.74 257.57 439.66 C 257.71 440.95 257.43 441.76 256.94 441.46 C 256.45 441.16 253.79 443.20 251.01 445.99 C 246.55 450.48 245.72 450.93 243.74 449.97 C 241.80 449.04 241.72 449.07 243.13 450.22 C 244.63 451.44 244.57 451.81 242.39 454.53 C 241.09 456.16 239.23 457.50 238.26 457.50 C 237.29 457.50 236.50 458.03 236.50 458.68 C 236.50 460.73 230.12 467.19 228.87 466.42 C 228.18 465.99 227.96 466.12 228.33 466.73 C 228.69 467.30 228.31 468.33 227.50 469.00 C 226.69 469.67 226.31 470.74 226.67 471.36 C 227.03 471.99 226.95 472.17 226.50 471.76 C 225.45 470.81 222.84 472.93 223.59 474.14 C 223.90 474.64 223.55 474.93 222.82 474.77 C 222.10 474.62 221.61 475.06 221.75 475.75 C 221.89 476.44 221.44 476.89 220.75 476.75 C 220.06 476.61 219.65 477.17 219.83 478.00 C 220.02 478.82 219.83 479.16 219.41 478.75 C 218.54 477.87 214.83 480.92 215.49 481.98 C 215.73 482.37 214.50 484.00 212.75 485.60 C 211.01 487.19 210.18 487.71 210.91 486.75 C 213.11 483.87 211.59 484.77 208.44 488.21 C 206.82 489.98 206.40 490.79 207.50 490.01 C 208.60 489.23 207.97 490.24 206.09 492.25 C 204.22 494.27 202.36 495.72 201.95 495.47 C 201.55 495.22 200.69 495.67 200.03 496.47 C 199.15 497.52 198.92 503.75 199.16 519.49 C 199.44 537.33 199.76 541.24 201.00 542.02 C 201.82 542.54 202.05 542.98 201.50 543.00 C 200.95 543.02 201.18 543.47 202.00 544.00 C 202.82 544.53 204.85 544.94 206.50 544.91 C 209.10 544.87 209.23 544.74 207.50 543.97 C 205.29 543.00 207.27 543.14 222.26 545.08 C 227.07 545.70 231.71 545.94 232.56 545.62 C 233.41 545.29 233.89 545.37 233.62 545.80 C 232.95 546.89 261.06 551.29 263.50 550.48 C 264.94 550.00 265.12 550.08 264.15 550.78 C 262.51 551.95 271.32 553.54 273.15 552.41 C 273.91 551.94 274.04 552.13 273.51 552.98 C 272.91 553.96 273.47 554.16 275.81 553.82 C 277.50 553.57 278.69 553.70 278.43 554.11 C 277.79 555.15 288.71 557.30 290.14 556.41 C 290.83 555.99 291.04 556.12 290.66 556.74 C 289.89 557.98 294.59 559.37 296.20 558.38 C 296.92 557.93 297.02 558.15 296.49 559.02 C 295.89 559.99 296.13 560.16 297.39 559.68 C 298.33 559.32 298.85 559.43 298.54 559.94 C 297.98 560.85 301.74 562.60 303.32 562.17 C 303.78 562.05 303.88 562.38 303.56 562.91 C 303.23 563.43 303.43 564.15 304.00 564.50 C 304.57 564.85 304.81 565.51 304.53 565.96 C 304.25 566.41 304.80 567.39 305.76 568.14 C 307.33 569.37 307.37 569.33 306.13 567.75 C 305.31 566.71 305.19 566.00 305.82 566.00 C 306.40 566.00 307.16 566.46 307.51 567.02 C 307.86 567.58 308.63 567.73 309.22 567.36 C 309.84 566.98 310.02 567.15 309.65 567.76 C 308.56 569.52 313.17 570.64 316.41 569.40ZM 317.42 535.39 C 318.80 534.86 319.00 531.58 319.00 508.83 C 319.00 491.99 318.65 483.10 318.01 483.49 C 317.46 483.83 317.27 483.47 317.57 482.68 C 318.35 480.65 315.32 480.13 302.32 480.07 C 293.45 480.02 290.81 480.33 289.57 481.58 C 288.26 482.88 288.00 486.12 288.00 500.99 L 288.00 518.83 L 292.98 522.49 C 295.72 524.50 298.43 525.85 299.01 525.50 C 299.58 525.14 299.93 525.45 299.77 526.18 C 299.62 526.92 300.28 527.44 301.29 527.36 C 302.79 527.23 302.87 527.46 301.79 528.77 C 300.64 530.16 300.77 530.19 303.00 529.00 C 305.21 527.82 305.36 527.85 304.24 529.20 C 303.17 530.50 303.34 530.69 305.46 530.45 C 306.92 530.30 307.85 530.66 307.72 531.34 C 307.60 531.98 308.26 532.51 309.18 532.51 C 310.10 532.52 311.23 532.93 311.68 533.42 C 312.15 533.94 311.87 534.01 311.00 533.59 C 310.18 533.18 310.37 533.56 311.44 534.43 C 313.53 536.12 314.93 536.35 317.42 535.39ZM 340.33 524.73 C 339.98 524.16 340.17 523.99 340.76 524.35 C 342.15 525.21 345.14 524.04 344.44 522.91 C 344.14 522.42 344.67 522.32 345.61 522.68 C 346.77 523.13 347.09 522.96 346.61 522.18 C 346.13 521.40 346.46 521.24 347.61 521.68 C 348.87 522.16 349.11 521.99 348.51 521.02 C 347.96 520.13 348.08 519.93 348.86 520.41 C 350.27 521.28 358.12 518.00 357.40 516.84 C 357.12 516.39 357.67 516.32 358.61 516.68 C 359.71 517.10 360.09 516.95 359.66 516.26 C 359.23 515.57 359.80 515.36 361.25 515.68 C 362.85 516.03 363.12 515.90 362.17 515.23 C 361.09 514.46 361.14 514.16 362.47 513.65 C 363.42 513.28 363.85 513.43 363.49 514.01 C 363.16 514.56 363.37 515.00 363.96 515.00 C 364.71 515.00 364.95 507.27 364.77 489.75 L 364.50 464.50 L 351.14 464.22 C 337.52 463.94 334.27 464.66 335.44 467.71 C 335.74 468.48 335.53 468.83 334.99 468.49 C 334.35 468.10 334.00 477.59 334.00 495.61 C 334.00 519.31 334.23 523.59 335.56 525.06 C 337.19 526.87 341.47 526.57 340.33 524.73Z"/></g>
<g fill="#173752FF">
<path d="M 724.00 434.78 C 724.00 430.51 723.70 429.90 720.93 428.47 C 719.25 427.59 717.11 427.08 716.18 427.32 C 715.10 427.61 715.37 427.81 716.95 427.88 C 718.60 427.96 719.07 428.33 718.39 429.01 C 717.23 430.17 711.00 429.21 711.00 427.88 C 711.00 427.39 711.79 426.96 712.75 426.92 C 713.85 426.87 714.02 426.65 713.22 426.33 C 712.51 426.04 711.36 426.28 710.66 426.86 C 708.68 428.51 705.01 427.08 704.93 424.63 C 704.86 422.55 704.84 422.55 704.00 424.50 C 703.53 425.60 703.11 425.91 703.07 425.19 C 703.03 424.47 702.53 424.17 701.97 424.52 C 701.32 424.92 701.10 424.22 701.39 422.64 C 701.73 420.76 701.48 420.26 700.42 420.67 C 699.64 420.97 699.00 421.64 699.00 422.17 C 699.00 422.69 699.52 422.80 700.15 422.40 C 700.92 421.93 701.04 422.13 700.50 423.00 C 699.87 424.01 699.39 423.88 698.30 422.40 C 697.54 421.36 696.42 420.50 695.82 420.50 C 695.21 420.50 694.22 419.64 693.61 418.59 C 693.00 417.54 691.70 415.83 690.71 414.80 C 689.73 413.77 689.22 412.45 689.59 411.86 C 690.04 411.13 690.51 411.21 691.06 412.10 C 691.50 412.82 691.60 413.83 691.28 414.36 C 690.96 414.88 691.21 414.99 691.85 414.59 C 693.67 413.47 691.36 409.92 689.32 410.71 C 688.22 411.13 687.91 410.95 688.39 410.17 C 688.79 409.53 688.59 409.00 687.95 409.00 C 687.27 409.00 687.05 408.30 687.43 407.33 C 687.78 406.41 687.63 405.39 687.09 405.05 C 686.46 404.67 686.44 403.01 687.03 400.47 C 688.26 395.18 688.24 388.27 687.00 387.50 C 685.32 386.46 685.78 382.70 687.50 383.36 C 688.41 383.71 689.00 383.36 689.00 382.47 C 689.00 381.66 688.55 381.00 688.00 381.00 C 687.45 381.00 687.00 380.56 687.00 380.03 C 687.00 379.50 687.79 379.36 688.75 379.72 C 690.28 380.29 690.33 380.16 689.13 378.69 C 688.16 377.50 688.10 377.00 688.94 377.00 C 689.59 377.00 689.79 376.47 689.39 375.83 C 688.90 375.03 689.24 374.88 690.48 375.35 C 692.00 375.94 692.09 375.81 691.03 374.53 C 690.00 373.30 690.07 372.91 691.38 372.41 C 692.27 372.07 692.78 371.45 692.53 371.04 C 692.27 370.63 693.17 369.25 694.53 367.97 C 695.89 366.70 697.00 366.04 697.00 366.52 C 697.00 366.99 697.66 366.51 698.47 365.44 C 699.28 364.37 699.96 363.95 699.98 364.50 C 700.01 365.05 700.44 364.86 700.93 364.07 C 701.43 363.29 702.89 362.49 704.17 362.30 C 705.45 362.10 706.65 361.51 706.83 360.98 C 707.04 360.37 707.86 360.39 709.06 361.03 C 710.58 361.85 710.84 361.75 710.37 360.52 C 710.05 359.69 710.28 359.00 710.89 359.00 C 711.50 359.00 712.00 359.54 712.00 360.19 C 712.00 360.85 712.61 360.54 713.37 359.51 C 714.59 357.84 715.07 357.78 717.92 358.97 C 720.53 360.05 721.33 360.05 722.31 359.00 C 723.25 357.98 723.19 357.86 722.00 358.43 C 721.08 358.87 721.18 358.59 722.25 357.71 C 723.31 356.85 724.00 354.90 724.00 352.79 L 724.00 349.30 L 732.45 349.40 C 737.79 349.46 740.55 349.85 739.95 350.45 C 738.33 352.07 738.90 354.56 741.44 356.95 C 743.31 358.70 744.53 359.08 746.62 358.56 C 749.01 357.96 749.19 358.07 748.05 359.44 C 746.97 360.74 747.01 361.00 748.32 361.00 C 749.18 361.00 750.16 360.55 750.50 360.00 C 751.42 358.52 753.30 358.79 752.71 360.32 C 752.40 361.11 753.36 362.07 755.11 362.73 C 756.71 363.34 757.78 363.45 757.48 362.97 C 757.19 362.50 758.20 362.22 759.73 362.35 C 761.67 362.52 762.46 363.11 762.36 364.33 C 762.24 365.66 762.52 365.81 763.52 364.98 C 764.50 364.17 765.05 364.27 765.67 365.37 C 766.13 366.19 766.95 366.92 767.50 366.99 C 768.05 367.06 768.44 367.76 768.36 368.55 C 768.29 369.33 768.64 369.72 769.16 369.40 C 770.37 368.66 773.14 370.96 772.43 372.11 C 772.13 372.60 772.35 373.00 772.92 373.00 C 774.46 373.00 777.19 378.76 776.00 379.50 C 775.45 379.84 775.04 380.88 775.08 381.81 C 775.13 382.85 775.35 383.02 775.66 382.25 C 775.94 381.56 776.59 381.00 777.12 381.00 C 777.67 381.00 777.61 381.86 776.97 383.05 C 776.37 384.18 776.07 386.09 776.30 387.30 L 776.73 389.50 L 776.86 387.25 C 776.94 386.01 777.36 385.00 777.81 385.00 C 778.25 385.00 778.59 388.78 778.56 393.40 C 778.53 398.03 778.21 401.63 777.85 401.41 C 777.50 401.19 776.96 401.67 776.65 402.47 C 776.34 403.28 776.52 404.20 777.04 404.53 C 777.57 404.85 778.00 405.57 778.00 406.12 C 778.00 406.67 777.48 406.80 776.84 406.40 C 776.05 405.91 775.86 406.37 776.25 407.84 C 776.56 409.03 776.38 410.00 775.85 410.00 C 775.32 410.00 775.16 410.45 775.50 411.00 C 775.84 411.55 775.61 412.00 775.00 412.00 C 774.39 412.00 774.14 412.41 774.45 412.91 C 774.76 413.41 773.32 415.56 771.25 417.68 C 768.59 420.41 766.71 421.50 764.78 421.42 C 763.29 421.35 762.28 421.64 762.54 422.06 C 763.31 423.31 761.87 426.04 760.78 425.37 C 760.23 425.02 759.38 425.36 758.90 426.12 C 758.27 427.12 758.03 427.16 758.02 426.25 C 758.01 425.56 757.21 425.04 756.25 425.08 C 755.20 425.13 755.00 425.36 755.75 425.66 C 756.44 425.94 757.00 426.61 757.00 427.14 C 757.00 427.68 756.50 427.81 755.89 427.43 C 755.28 427.05 754.39 427.36 753.92 428.12 C 753.22 429.24 752.69 429.27 751.04 428.25 C 748.23 426.50 746.20 426.68 748.56 428.47 C 750.10 429.63 750.18 429.94 748.95 429.97 C 748.10 429.99 746.86 429.46 746.20 428.80 C 745.27 427.87 745.00 427.87 745.00 428.80 C 745.00 429.46 744.39 430.00 743.65 430.00 C 742.92 430.00 741.57 430.82 740.65 431.83 C 738.95 433.71 738.40 435.49 739.78 434.64 C 740.21 434.37 740.51 435.28 740.45 436.67 C 740.34 439.12 740.15 439.18 732.17 439.34 L 724.00 439.50 L 724.00 434.78ZM 719.50 416.00 C 719.84 415.45 720.79 415.00 721.62 415.00 C 722.50 415.00 722.82 415.48 722.40 416.15 C 721.96 416.87 722.13 417.04 722.85 416.60 C 723.66 416.09 724.00 409.64 723.99 394.69 C 723.97 371.97 723.64 368.82 721.37 369.69 C 720.20 370.14 720.26 370.48 721.72 371.59 C 723.42 372.88 723.42 372.94 721.68 372.97 C 720.69 372.99 718.89 372.48 717.68 371.84 C 715.71 370.78 715.63 370.83 716.87 372.34 C 717.67 373.31 717.80 374.00 717.19 374.00 C 716.61 374.00 714.86 374.52 713.32 375.15 C 709.69 376.62 706.70 376.76 705.75 375.50 C 705.33 374.95 705.26 376.25 705.58 378.39 C 706.09 381.78 705.95 382.19 704.44 381.62 C 702.99 381.06 702.92 381.20 703.98 382.48 C 705.02 383.73 704.97 384.00 703.68 384.00 C 702.82 384.00 701.84 384.44 701.51 384.99 C 701.17 385.53 701.50 385.74 702.25 385.46 C 703.32 385.05 703.51 386.32 703.18 391.72 C 702.95 395.45 702.36 398.65 701.88 398.83 C 700.43 399.38 700.89 401.00 702.50 401.00 C 704.31 401.00 704.43 402.17 702.80 403.80 C 701.87 404.73 701.88 405.28 702.86 406.25 C 703.87 407.25 703.99 407.15 703.45 405.75 C 703.07 404.74 703.25 404.00 703.89 404.00 C 704.50 404.00 705.00 404.50 705.00 405.11 C 705.00 405.71 706.13 407.10 707.51 408.19 C 708.89 409.27 709.75 410.60 709.42 411.13 C 709.06 411.72 708.17 411.59 707.16 410.80 C 705.68 409.64 705.65 409.69 706.86 411.24 C 707.79 412.42 709.00 412.79 710.61 412.38 C 711.93 412.05 713.00 412.19 713.00 412.68 C 713.00 413.17 713.95 413.65 715.11 413.73 C 717.98 413.95 718.75 414.91 716.97 416.04 C 715.73 416.83 715.76 416.97 717.19 416.98 C 718.12 416.99 719.16 416.55 719.50 416.00ZM 746.50 416.02 C 744.69 415.26 744.80 415.07 747.72 414.00 C 751.06 412.78 752.70 412.90 752.23 414.32 C 752.07 414.78 752.39 414.88 752.93 414.54 C 753.47 414.21 753.68 413.32 753.39 412.57 C 752.72 410.82 754.62 409.58 755.59 411.14 C 756.07 411.92 755.87 412.04 755.00 411.50 C 754.11 410.95 753.93 411.08 754.44 411.91 C 755.01 412.83 755.67 412.70 757.10 411.41 C 758.53 410.11 758.72 409.37 757.88 408.36 C 757.05 407.35 757.17 406.87 758.38 406.41 C 759.27 406.07 759.74 405.39 759.44 404.90 C 759.13 404.40 759.39 404.00 760.00 404.00 C 760.61 404.00 760.84 403.55 760.50 403.00 C 760.16 402.45 760.41 402.00 761.05 402.00 C 761.69 402.00 761.96 401.34 761.65 400.53 C 761.34 399.72 761.45 398.84 761.89 398.57 C 762.33 398.29 762.73 396.70 762.78 395.03 C 762.83 393.36 763.15 391.10 763.50 390.00 C 764.00 388.41 763.78 388.15 762.40 388.67 C 761.01 389.21 760.79 388.92 761.25 387.17 C 761.56 385.98 761.35 385.00 760.78 385.00 C 760.21 385.00 760.37 384.24 761.13 383.31 C 762.03 382.19 762.08 381.87 761.26 382.36 C 760.50 382.82 758.86 381.77 756.95 379.60 C 755.26 377.67 753.00 375.82 751.94 375.48 C 750.87 375.14 750.00 374.40 750.00 373.83 C 750.00 373.25 750.78 373.08 751.75 373.45 C 753.15 373.99 753.25 373.87 752.25 372.86 C 751.33 371.93 750.71 371.89 749.88 372.72 C 749.25 373.35 747.29 373.60 745.39 373.29 C 739.40 372.32 739.21 372.97 739.42 393.79 C 739.52 404.10 739.94 413.09 740.36 413.77 C 740.78 414.45 741.77 415.00 742.56 415.00 C 743.35 415.00 744.00 415.45 744.00 416.00 C 744.00 416.55 745.01 416.97 746.25 416.93 C 748.39 416.86 748.40 416.82 746.50 416.02Z"/></g>
<g fill="#173752FF">
<path d="M 823.56 439.10 C 823.25 438.59 823.55 437.94 824.24 437.66 C 825.21 437.27 825.20 437.14 824.18 437.08 C 823.46 437.04 822.00 437.47 820.93 438.04 C 819.77 438.66 819.00 438.69 819.00 438.12 C 819.00 437.59 819.56 436.94 820.25 436.66 C 821.08 436.33 820.98 436.13 819.95 436.08 C 819.10 436.04 817.79 436.56 817.05 437.25 C 815.95 438.27 815.82 438.18 816.33 436.73 C 816.87 435.21 816.66 435.11 814.92 436.04 C 813.19 436.97 812.93 436.86 813.19 435.32 C 813.40 434.07 812.87 433.49 811.50 433.47 C 810.40 433.46 807.54 431.52 805.14 429.16 C 802.55 426.61 800.19 425.10 799.34 425.42 C 798.53 425.73 798.17 425.54 798.51 424.99 C 798.84 424.44 798.66 424.00 798.09 424.00 C 797.53 424.00 796.56 423.05 795.94 421.88 C 795.03 420.19 795.08 419.87 796.15 420.26 C 796.89 420.53 797.40 421.21 797.28 421.78 C 797.16 422.35 797.73 423.07 798.54 423.38 C 799.83 423.87 799.83 423.57 798.50 421.01 C 797.58 419.22 796.44 418.28 795.59 418.60 C 794.83 418.90 793.91 418.66 793.55 418.08 C 793.15 417.44 793.50 417.26 794.45 417.62 C 795.47 418.01 796.00 417.64 796.00 416.55 C 796.00 415.63 795.64 415.10 795.20 415.38 C 794.76 415.65 793.75 415.45 792.95 414.95 C 791.74 414.18 791.79 414.03 793.23 414.02 C 794.71 414.00 794.79 413.64 793.82 411.50 C 793.19 410.12 792.08 409.00 791.34 409.00 C 790.09 409.00 789.52 406.34 789.73 401.50 C 790.11 392.77 790.05 390.19 789.41 388.08 C 788.81 386.09 788.97 385.77 790.34 386.30 C 792.36 387.08 792.65 384.10 790.75 382.05 C 789.73 380.95 789.82 380.82 791.25 381.32 C 792.40 381.73 793.00 381.44 793.00 380.47 C 793.00 379.66 792.55 379.00 792.00 379.00 C 791.45 379.00 791.00 378.55 791.00 378.00 C 791.00 377.45 791.73 377.00 792.62 377.00 C 794.02 377.00 794.05 376.77 792.87 375.31 C 791.66 373.82 791.72 373.71 793.39 374.34 C 795.07 374.97 795.13 374.85 793.89 373.34 C 792.67 371.83 792.71 371.70 794.23 372.28 C 796.25 373.03 798.75 369.58 796.98 368.49 C 796.41 368.14 796.07 368.39 796.23 369.05 C 796.38 369.71 795.93 370.38 795.23 370.55 C 794.52 370.71 794.41 370.62 794.98 370.34 C 795.55 370.06 795.76 369.41 795.44 368.91 C 795.13 368.40 795.57 367.72 796.43 367.39 C 797.29 367.06 797.79 366.47 797.55 366.09 C 797.32 365.70 798.85 363.70 800.97 361.65 C 803.63 359.07 805.06 358.28 805.57 359.11 C 806.02 359.84 805.89 360.05 805.22 359.64 C 804.63 359.27 803.83 359.47 803.45 360.08 C 803.02 360.78 803.46 361.06 804.63 360.83 C 805.70 360.63 806.50 359.63 806.50 358.49 C 806.50 357.39 807.08 356.62 807.78 356.76 C 808.48 356.90 809.32 356.33 809.64 355.48 C 810.13 354.22 810.51 354.17 811.81 355.22 C 813.10 356.27 813.24 356.26 812.57 355.14 C 811.93 354.09 812.26 353.95 814.00 354.50 C 815.69 355.04 816.05 354.89 815.46 353.94 C 814.90 353.03 815.15 352.84 816.32 353.29 C 817.34 353.68 817.88 353.46 817.74 352.71 C 817.61 352.05 818.39 351.58 819.49 351.68 C 820.58 351.78 821.80 351.33 822.19 350.69 C 822.74 349.80 823.22 349.82 824.16 350.76 C 825.63 352.23 836.00 352.44 836.00 351.00 C 836.00 350.45 836.50 350.00 837.11 350.00 C 837.72 350.00 837.97 350.63 837.68 351.39 C 836.94 353.31 842.77 354.43 844.83 352.75 C 846.15 351.68 846.27 351.79 845.63 353.50 C 845.05 355.06 845.15 355.24 846.09 354.30 C 847.02 353.38 848.16 353.55 851.19 355.10 C 855.62 357.36 863.05 363.75 862.72 365.02 C 862.60 365.48 863.40 366.57 864.50 367.43 C 866.13 368.72 866.18 368.89 864.74 368.39 C 863.41 367.93 863.13 368.18 863.59 369.38 C 863.93 370.27 864.66 370.71 865.22 370.37 C 866.60 369.51 868.10 372.18 866.98 373.52 C 866.49 374.12 866.35 375.63 866.68 376.89 C 867.11 378.55 867.50 378.81 868.08 377.86 C 869.41 375.72 870.26 377.65 869.02 379.97 C 868.39 381.15 868.09 382.65 868.36 383.31 C 868.62 383.96 868.88 383.71 868.92 382.75 C 868.96 381.79 869.45 381.00 870.00 381.00 C 871.21 381.00 871.21 380.80 870.09 384.69 C 869.32 387.39 869.42 387.78 870.75 387.27 C 872.03 386.78 872.17 387.12 871.53 389.08 C 870.47 392.33 870.41 395.74 871.33 400.25 C 871.86 402.86 871.74 404.00 870.94 404.00 C 870.30 404.00 870.05 403.32 870.36 402.50 C 870.68 401.68 870.45 401.00 869.85 401.00 C 868.75 401.00 869.06 403.87 870.55 407.42 C 871.19 408.97 871.02 409.22 869.67 408.70 C 867.73 407.96 867.47 409.07 869.18 410.78 C 869.83 411.43 870.03 412.30 869.63 412.70 C 869.22 413.11 868.47 412.78 867.96 411.97 C 867.39 411.07 867.02 410.96 867.02 411.69 C 867.01 412.35 867.45 413.16 868.00 413.50 C 869.52 414.44 869.20 416.29 867.62 415.69 C 865.66 414.93 863.41 420.01 865.20 421.14 C 866.20 421.78 866.21 421.97 865.25 421.98 C 864.56 421.99 864.00 422.58 864.00 423.30 C 864.00 424.01 862.25 426.31 860.10 428.40 C 857.15 431.29 855.70 432.04 854.10 431.53 C 852.39 430.99 851.99 431.29 851.92 433.18 C 851.88 434.46 851.62 434.94 851.34 434.25 C 851.06 433.56 850.39 433.00 849.86 433.00 C 849.32 433.00 849.09 433.34 849.34 433.75 C 849.59 434.16 849.16 435.08 848.40 435.79 C 847.59 436.53 847.00 436.64 847.00 436.04 C 847.00 435.47 846.34 435.00 845.53 435.00 C 844.55 435.00 844.28 435.58 844.72 436.75 C 845.29 438.27 845.16 438.32 843.72 437.16 C 842.81 436.42 841.49 436.04 840.78 436.33 C 840.00 436.64 840.20 436.87 841.31 436.92 C 842.30 436.96 842.84 437.45 842.50 438.00 C 842.09 438.67 841.21 438.65 839.89 437.94 C 838.79 437.35 837.13 437.07 836.20 437.32 C 834.65 437.73 834.65 437.78 836.25 437.88 C 837.21 437.95 838.00 438.48 838.00 439.07 C 838.00 439.72 837.14 439.85 835.75 439.40 C 833.42 438.64 826.21 438.75 824.89 439.57 C 824.48 439.82 823.88 439.61 823.56 439.10ZM 835.36 424.50 C 835.05 423.68 835.28 423.00 835.89 423.00 C 836.50 423.00 837.01 423.56 837.03 424.25 C 837.05 425.03 837.56 424.85 838.37 423.78 C 839.40 422.43 839.94 422.32 840.98 423.28 C 842.02 424.25 842.13 424.22 841.52 423.14 C 840.54 421.41 843.14 419.61 844.18 421.29 C 844.74 422.19 845.24 422.14 846.21 421.09 C 847.17 420.06 847.18 419.88 846.25 420.41 C 845.56 420.80 845.00 420.67 845.00 420.12 C 845.00 418.60 849.17 415.99 850.41 416.73 C 851.01 417.09 850.92 416.66 850.20 415.78 C 848.72 413.95 850.20 412.40 852.25 413.63 C 853.08 414.13 853.03 413.81 852.11 412.67 C 850.87 411.15 850.93 411.03 852.61 411.66 C 854.28 412.29 854.34 412.18 853.13 410.69 C 852.28 409.64 852.17 409.00 852.85 409.00 C 853.46 409.00 853.65 408.26 853.30 407.33 C 852.81 406.06 853.06 405.81 854.33 406.30 C 856.12 406.98 856.67 405.53 855.00 404.50 C 853.33 403.47 853.79 399.98 855.50 400.64 C 856.43 400.99 857.00 400.63 857.00 399.69 C 857.00 398.85 856.52 398.01 855.94 397.81 C 855.19 397.56 855.19 396.64 855.94 394.66 C 857.44 390.72 857.28 388.95 855.50 389.64 C 853.66 390.34 853.49 387.78 855.20 385.05 C 856.19 383.47 855.98 382.23 854.03 378.07 C 852.73 375.28 851.48 373.19 851.26 373.41 C 851.03 373.63 851.56 375.18 852.43 376.86 C 854.27 380.42 854.35 381.00 853.00 381.00 C 852.45 381.00 852.00 380.43 852.00 379.73 C 852.00 379.03 850.20 376.29 848.00 373.62 C 843.46 368.13 843.33 367.85 845.75 368.63 C 847.21 369.10 847.26 369.02 846.01 368.14 C 845.11 367.50 844.15 367.45 843.61 367.99 C 843.06 368.54 841.87 368.46 840.62 367.80 C 838.57 366.70 838.57 366.68 840.52 365.91 C 842.13 365.29 842.18 365.13 840.81 365.07 C 839.88 365.03 838.84 365.45 838.50 366.00 C 838.16 366.55 837.40 367.00 836.82 367.00 C 836.11 367.00 836.13 366.54 836.90 365.62 C 837.81 364.52 837.54 364.14 835.55 363.77 C 834.04 363.48 833.30 363.68 833.68 364.29 C 834.08 364.93 832.64 365.11 829.71 364.78 C 826.39 364.40 824.97 364.63 824.60 365.61 C 824.31 366.36 823.38 366.70 822.54 366.38 C 821.69 366.05 821.00 366.31 821.00 366.95 C 821.00 367.59 820.54 367.84 819.98 367.49 C 819.42 367.14 819.18 366.52 819.44 366.10 C 819.70 365.68 819.24 365.33 818.42 365.33 C 817.40 365.33 817.26 365.66 817.97 366.37 C 819.29 367.69 819.31 369.31 817.99 368.50 C 817.44 368.15 816.72 368.57 816.39 369.43 C 816.06 370.29 815.28 370.69 814.65 370.33 C 814.02 369.97 813.84 370.05 814.25 370.51 C 814.67 370.96 814.26 372.16 813.35 373.17 C 811.47 375.24 809.51 375.65 810.59 373.75 C 811.03 372.96 810.78 373.01 809.90 373.87 C 808.82 374.93 808.79 375.36 809.74 375.71 C 810.68 376.05 810.61 376.53 809.48 377.66 C 808.66 378.49 808.28 379.65 808.65 380.25 C 809.08 380.93 808.74 381.11 807.75 380.73 C 806.22 380.15 804.35 382.68 805.48 383.81 C 805.76 384.10 806.00 383.78 806.00 383.11 C 806.00 382.43 806.52 382.20 807.15 382.59 C 807.96 383.09 807.79 383.68 806.59 384.56 C 805.50 385.35 805.27 386.05 805.94 386.46 C 807.71 387.55 807.21 390.30 805.38 389.59 C 804.07 389.09 803.90 389.41 804.46 391.24 C 806.03 396.31 806.19 398.00 805.12 398.00 C 804.50 398.00 804.00 398.68 804.00 399.50 C 804.00 401.32 805.62 401.49 806.38 399.75 C 806.68 399.06 806.65 399.79 806.32 401.36 C 805.94 403.20 806.20 404.50 807.05 405.03 C 807.77 405.48 808.37 407.64 808.38 409.85 C 808.40 412.06 808.65 413.84 808.95 413.81 C 811.07 413.62 811.83 414.27 811.50 415.98 C 811.29 417.07 811.61 418.26 812.22 418.63 C 812.87 419.04 813.02 418.85 812.60 418.15 C 812.20 417.52 812.14 417.00 812.46 417.00 C 813.52 417.00 819.98 421.50 819.99 422.25 C 820.01 423.66 818.10 423.00 817.08 421.25 C 816.52 420.29 816.05 420.01 816.03 420.63 C 816.01 421.25 816.67 422.32 817.50 423.00 C 818.70 424.00 819.33 423.97 820.69 422.87 C 822.16 421.67 822.29 421.72 821.72 423.25 C 820.94 425.32 821.36 425.42 823.97 423.79 C 825.04 423.12 826.25 422.92 826.68 423.34 C 827.10 423.76 826.78 424.53 825.97 425.04 C 824.96 425.68 826.30 425.97 830.22 425.98 C 834.89 426.00 835.83 425.73 835.36 424.50Z"/></g>
<g fill="#173752FF">
<path d="M 516.25 553.26 L 511.00 552.90 L 510.89 513.20 C 510.83 491.36 510.69 471.81 510.57 469.75 L 510.36 466.00 L 519.46 466.00 C 527.65 466.00 528.75 466.22 530.51 468.25 C 531.58 469.49 532.36 470.84 532.23 471.25 C 532.10 471.66 532.44 472.00 532.97 472.00 C 534.37 472.00 537.17 477.78 536.10 478.44 C 535.61 478.74 534.93 478.25 534.58 477.35 C 534.24 476.45 533.69 475.97 533.37 476.29 C 533.06 476.61 533.52 477.90 534.40 479.16 C 535.28 480.42 536.00 480.89 536.00 480.22 C 536.00 479.55 536.48 479.00 537.06 479.00 C 537.64 479.00 537.84 479.45 537.50 480.00 C 537.16 480.55 537.41 481.00 538.06 481.00 C 538.78 481.00 539.01 481.85 538.66 483.20 C 538.31 484.53 538.89 486.70 540.12 488.70 C 542.34 492.28 543.74 493.25 542.00 490.00 C 541.34 488.76 541.30 488.00 541.91 488.00 C 543.27 488.00 544.28 489.88 544.56 492.92 C 544.69 494.34 544.85 495.82 544.90 496.22 C 544.96 496.61 545.62 496.70 546.37 496.41 C 547.95 495.80 549.39 498.64 547.96 499.53 C 547.43 499.85 547.00 499.57 547.00 498.89 C 547.00 498.22 546.74 497.93 546.42 498.25 C 545.26 499.41 549.12 503.89 550.74 503.27 C 551.80 502.86 552.08 503.05 551.60 503.84 C 551.19 504.51 551.55 505.27 552.43 505.61 C 553.29 505.94 553.74 506.61 553.44 507.10 C 553.13 507.60 553.39 508.00 554.00 508.00 C 554.61 508.00 554.84 508.45 554.50 509.00 C 554.16 509.55 554.36 510.00 554.94 510.00 C 555.52 510.00 556.34 510.00 556.75 510.00 C 557.16 510.00 557.50 509.48 557.50 508.83 C 557.50 508.19 558.06 507.48 558.75 507.25 C 559.57 506.98 559.80 507.46 559.41 508.67 C 558.92 510.15 559.01 510.22 559.85 509.03 C 560.52 508.09 560.54 507.16 559.92 506.41 C 559.25 505.60 559.62 505.07 561.14 504.67 C 562.99 504.19 563.13 503.86 562.04 502.55 C 561.33 501.70 561.16 501.00 561.66 501.00 C 562.16 501.00 563.07 499.65 563.69 498.00 C 564.32 496.35 565.34 495.00 565.97 495.00 C 566.60 495.00 566.84 495.45 566.50 496.00 C 566.16 496.55 566.12 497.00 566.41 497.00 C 566.69 497.00 567.44 496.04 568.07 494.87 C 568.96 493.21 568.91 492.56 567.85 491.89 C 566.77 491.20 566.76 491.03 567.81 491.02 C 568.53 491.01 568.87 490.60 568.56 490.10 C 568.26 489.61 568.71 488.94 569.57 488.61 C 570.43 488.28 570.85 487.56 570.50 487.01 C 569.69 485.69 571.31 485.71 572.64 487.04 C 573.88 488.28 573.85 485.19 572.60 483.17 C 572.05 482.26 572.33 481.96 573.52 482.18 C 575.84 482.61 578.02 479.27 576.17 478.11 C 575.07 477.43 575.09 477.18 576.27 476.73 C 577.07 476.42 578.00 474.75 578.35 473.02 C 578.72 471.17 579.41 470.14 580.03 470.52 C 580.61 470.88 581.63 470.72 582.29 470.17 C 582.96 469.63 584.85 468.96 586.50 468.69 C 589.34 468.23 589.32 468.20 586.00 468.20 C 580.81 468.20 580.35 468.06 582.00 467.00 C 582.83 466.47 587.59 466.02 592.58 466.02 C 599.72 466.00 601.67 466.30 601.67 467.40 C 601.67 468.23 601.06 468.58 600.19 468.24 C 599.09 467.82 598.94 468.08 599.61 469.27 C 600.10 470.15 600.38 489.22 600.23 511.93 L 599.96 553.00 L 593.92 553.00 C 590.15 553.00 588.11 552.62 588.50 552.00 C 589.38 550.58 587.66 550.76 586.05 552.25 C 585.14 553.09 584.92 553.12 585.37 552.32 C 586.25 550.76 586.42 500.23 585.56 496.95 C 585.19 495.56 584.12 493.93 583.19 493.35 C 581.75 492.45 581.49 492.71 581.45 495.08 C 581.43 496.61 581.84 497.60 582.36 497.28 C 582.89 496.95 582.98 497.23 582.55 497.91 C 582.14 498.59 581.21 498.91 580.48 498.63 C 578.95 498.04 577.63 500.65 579.02 501.51 C 580.82 502.63 577.68 505.98 575.25 505.54 C 573.99 505.31 573.21 505.54 573.53 506.04 C 573.84 506.55 573.61 507.86 573.02 508.96 C 572.15 510.59 572.23 510.85 573.47 510.37 C 574.31 510.05 574.74 509.39 574.44 508.90 C 574.13 508.40 574.39 508.00 575.00 508.00 C 575.61 508.00 575.80 507.48 575.40 506.85 C 574.96 506.12 575.13 505.96 575.86 506.41 C 577.44 507.39 574.04 513.23 572.29 512.56 C 570.47 511.86 568.79 515.39 570.25 516.85 C 571.12 517.72 571.09 518.00 570.14 518.00 C 569.45 518.00 569.13 518.40 569.44 518.90 C 569.74 519.39 569.29 520.06 568.43 520.39 C 567.57 520.72 567.15 521.44 567.50 521.99 C 567.84 522.55 567.64 523.00 567.06 523.00 C 566.48 523.00 566.11 523.51 566.25 524.12 C 566.39 524.74 565.89 525.47 565.15 525.74 C 564.09 526.13 564.04 525.80 564.90 524.18 C 565.51 523.05 565.98 521.76 565.96 521.32 C 565.95 520.87 565.31 521.62 564.55 523.00 C 563.75 524.44 563.53 525.93 564.03 526.53 C 565.16 527.89 563.54 530.45 562.11 529.57 C 561.43 529.15 561.00 529.70 561.00 531.00 C 561.00 532.16 560.58 532.86 560.07 532.54 C 559.56 532.23 558.87 532.39 558.55 532.91 C 558.23 533.44 558.49 534.19 559.14 534.59 C 559.92 535.07 560.04 534.87 559.50 534.00 C 558.96 533.13 559.08 532.93 559.86 533.41 C 560.51 533.81 560.77 534.56 560.46 535.07 C 559.63 536.40 552.25 536.22 551.40 534.85 C 550.93 534.08 551.13 533.96 552.00 534.50 C 553.01 535.12 553.15 534.75 552.59 532.91 C 552.18 531.58 551.81 530.01 551.76 529.42 C 551.71 528.82 551.07 528.33 550.35 528.33 C 549.36 528.33 549.31 528.67 550.14 529.67 C 550.75 530.40 550.85 531.01 550.37 531.02 C 549.89 531.02 550.17 531.47 551.00 532.00 C 551.83 532.54 551.99 532.98 551.35 532.98 C 549.93 533.00 545.94 526.90 546.64 525.78 C 546.91 525.33 547.60 525.25 548.17 525.60 C 548.78 525.98 548.73 525.36 548.04 524.07 C 547.40 522.88 545.78 521.40 544.45 520.79 C 542.69 520.00 542.30 519.35 543.03 518.47 C 543.58 517.80 543.73 516.45 543.35 515.46 C 542.82 514.10 543.00 513.87 544.08 514.50 C 544.86 514.95 545.15 514.94 544.72 514.46 C 543.30 512.90 540.81 513.05 541.42 514.66 C 541.78 515.59 541.52 516.01 540.75 515.75 C 540.06 515.52 539.49 514.92 539.48 514.42 C 539.48 513.91 539.14 512.98 538.73 512.34 C 538.33 511.70 538.15 510.58 538.33 509.84 C 538.52 509.10 538.48 508.84 538.25 509.25 C 538.02 509.66 537.39 510.00 536.86 510.00 C 536.32 510.00 536.16 509.55 536.50 509.00 C 536.84 508.45 536.59 508.00 535.94 508.00 C 535.06 508.00 535.09 507.60 536.02 506.48 C 537.07 505.21 537.02 505.06 535.72 505.55 C 533.99 506.22 531.36 502.51 532.89 501.57 C 533.39 501.26 534.07 501.75 534.42 502.65 C 534.76 503.55 535.33 504.01 535.67 503.67 C 536.69 502.64 533.96 500.08 532.45 500.66 C 531.59 500.99 530.59 500.18 529.86 498.60 C 529.21 497.17 528.41 496.00 528.09 496.00 C 527.77 496.00 527.63 509.01 527.78 524.91 C 528.06 553.54 528.04 553.82 526.03 553.30 C 524.91 553.01 523.97 552.03 523.94 551.13 C 523.89 550.02 523.58 550.22 522.97 551.75 C 522.47 552.99 521.94 553.92 521.78 553.82 C 521.63 553.71 519.14 553.46 516.25 553.26Z"/></g>
<g fill="#173752FF">
<path d="M 619.70 552.68 C 620.29 551.72 620.19 471.51 619.59 468.43 C 619.20 466.46 619.63 466.36 628.01 466.30 C 636.55 466.25 636.82 466.32 636.22 468.38 C 635.88 469.54 635.55 481.53 635.50 495.02 C 635.45 508.51 635.02 520.16 634.55 520.92 C 634.00 521.81 634.07 522.08 634.73 521.67 C 635.30 521.31 636.01 521.92 636.29 523.02 C 636.66 524.43 637.32 524.81 638.57 524.33 C 639.90 523.83 640.13 524.01 639.52 525.08 C 638.85 526.25 638.95 526.27 640.09 525.21 C 641.24 524.14 641.25 523.77 640.16 523.10 C 639.14 522.47 639.28 522.16 640.73 521.78 C 641.78 521.51 643.65 519.56 644.89 517.46 C 646.38 514.93 646.61 514.08 645.55 514.96 C 644.67 515.69 643.69 516.03 643.38 515.71 C 643.07 515.40 643.73 514.36 644.85 513.39 C 645.98 512.43 646.62 511.20 646.28 510.65 C 645.91 510.04 646.41 509.94 647.59 510.39 C 649.04 510.94 649.22 510.84 648.35 509.96 C 647.48 509.08 647.60 508.32 648.85 506.87 C 649.76 505.80 650.50 504.39 650.50 503.72 C 650.50 503.05 651.33 502.50 652.33 502.49 C 653.33 502.49 654.62 501.64 655.20 500.61 C 655.94 499.29 655.94 498.92 655.20 499.38 C 654.61 499.74 653.86 499.57 653.51 499.01 C 653.16 498.45 654.08 497.54 655.55 496.98 C 657.65 496.18 657.98 495.68 657.08 494.60 C 656.21 493.55 656.32 493.09 657.53 492.63 C 658.55 492.23 658.86 492.42 658.40 493.17 C 657.98 493.84 658.13 494.04 658.77 493.65 C 659.71 493.06 665.00 484.35 665.00 483.37 C 665.00 483.17 664.52 483.00 663.94 483.00 C 663.36 483.00 663.16 483.45 663.50 484.01 C 663.85 484.56 663.43 485.28 662.57 485.61 C 661.71 485.94 661.26 486.61 661.56 487.10 C 661.87 487.60 661.64 488.00 661.06 488.00 C 660.48 488.00 660.05 488.34 660.12 488.75 C 660.43 490.74 659.90 492.06 659.00 491.50 C 657.83 490.78 660.52 485.00 662.03 485.00 C 662.56 485.00 662.95 484.66 662.88 484.25 C 662.57 482.26 663.10 480.94 664.00 481.50 C 664.55 481.84 665.06 481.64 665.12 481.06 C 665.19 480.48 665.31 479.48 665.38 478.83 C 665.44 478.19 666.06 477.48 666.75 477.25 C 667.59 476.97 667.78 477.44 667.34 478.67 C 666.51 480.97 667.36 480.21 668.89 477.27 C 669.88 475.36 669.82 475.13 668.41 475.67 C 666.99 476.22 666.93 476.00 667.96 474.07 C 668.63 472.82 669.75 472.08 670.53 472.37 C 671.31 472.67 672.16 472.08 672.50 471.00 C 672.91 469.71 674.28 468.98 676.80 468.69 C 679.28 468.41 678.96 468.34 675.83 468.48 C 672.08 468.65 671.41 468.44 672.43 467.43 C 673.28 466.58 676.57 466.23 682.59 466.34 C 691.11 466.49 691.50 466.60 691.50 468.75 C 691.50 469.99 691.27 471.00 691.00 471.00 C 690.73 471.00 690.50 489.29 690.50 511.65 C 690.50 551.53 690.46 552.31 688.50 552.61 C 687.40 552.77 683.80 553.07 680.50 553.27 L 674.50 553.63 L 674.75 525.06 C 675.00 497.12 674.46 491.22 672.04 495.00 C 671.51 495.82 670.52 496.50 669.84 496.50 C 669.17 496.50 667.76 497.96 666.71 499.76 C 665.09 502.53 665.05 502.92 666.42 502.39 C 667.60 501.94 667.86 502.21 667.40 503.39 C 667.06 504.27 666.36 505.00 665.85 505.00 C 665.33 505.00 663.77 506.14 662.37 507.54 C 660.18 509.73 660.01 510.32 661.16 511.73 C 662.33 513.16 662.26 513.29 660.70 512.70 C 659.62 512.29 659.14 512.42 659.51 513.01 C 659.84 513.56 659.66 514.00 659.09 514.00 C 658.53 514.00 657.59 514.89 657.01 515.98 C 656.15 517.60 656.23 517.85 657.49 517.36 C 658.53 516.97 658.16 518.11 656.34 520.89 C 653.48 525.25 651.18 526.54 653.02 522.75 C 654.06 520.60 654.04 520.59 652.57 522.42 C 651.59 523.64 651.37 524.74 651.96 525.45 C 653.22 526.97 651.56 529.47 649.96 528.47 C 649.13 527.96 648.94 528.09 649.40 528.85 C 649.80 529.49 649.54 530.01 648.81 530.02 C 647.86 530.03 647.91 530.30 649.00 531.00 C 650.09 531.70 650.14 531.97 649.19 531.98 C 648.47 531.99 648.13 532.39 648.42 532.87 C 648.72 533.35 647.89 534.90 646.59 536.31 C 645.28 537.72 644.46 539.13 644.77 539.44 C 645.08 539.75 644.78 540.00 644.11 540.00 C 643.43 540.00 643.16 540.45 643.50 541.00 C 643.84 541.55 643.69 542.00 643.17 542.00 C 642.65 542.00 641.46 543.18 640.51 544.62 C 639.57 546.07 639.36 546.90 640.05 546.47 C 640.89 545.95 641.06 546.10 640.55 546.91 C 640.14 547.59 639.25 547.93 638.58 547.67 C 637.91 547.41 636.75 548.17 636.02 549.35 C 634.79 551.32 634.82 551.38 636.36 550.11 C 637.29 549.34 638.34 549.00 638.69 549.36 C 639.04 549.71 638.86 550.00 638.28 550.00 C 637.71 550.00 636.97 551.01 636.65 552.24 C 636.07 554.45 636.05 554.45 634.46 552.49 C 633.57 551.39 633.11 551.03 633.44 551.67 C 633.85 552.50 631.85 552.94 626.60 553.17 C 622.52 553.35 619.41 553.13 619.70 552.68Z"/></g>
<g fill="#173752FF">
<path d="M 708.00 509.88 L 708.00 466.26 L 726.50 466.12 C 737.28 466.04 745.00 466.37 745.00 466.91 C 745.00 467.42 744.44 468.03 743.75 468.27 C 743.06 468.51 744.47 469.05 746.87 469.46 C 750.12 470.02 751.46 469.87 752.08 468.87 C 752.75 467.79 753.17 467.77 754.16 468.76 C 755.15 469.75 755.10 470.01 753.95 470.03 C 752.90 470.05 752.99 470.35 754.30 471.11 C 755.58 471.85 756.50 471.83 757.46 471.03 C 758.51 470.16 759.75 470.77 763.04 473.81 C 766.12 476.65 766.92 477.93 765.98 478.51 C 765.18 479.01 764.94 478.91 765.34 478.26 C 765.70 477.68 765.34 476.96 764.54 476.65 C 763.32 476.19 763.28 476.52 764.26 478.66 C 764.90 480.07 765.59 480.73 765.80 480.11 C 766.42 478.24 768.00 478.88 768.00 481.00 C 768.00 482.10 768.54 483.00 769.20 483.00 C 770.13 483.00 770.13 483.27 769.20 484.20 C 767.47 485.93 767.73 487.32 769.64 486.58 C 770.97 486.07 771.06 486.23 770.10 487.38 C 769.18 488.49 769.21 488.94 770.21 489.40 C 771.23 489.87 771.24 490.12 770.25 490.58 C 769.56 490.90 769.01 492.14 769.03 493.33 C 769.06 495.45 769.10 495.46 770.53 493.56 C 771.94 491.70 772.00 491.73 772.00 494.31 C 772.00 496.01 771.46 497.00 770.52 497.00 C 769.35 497.00 769.25 497.53 770.02 499.57 C 771.28 502.86 771.25 503.27 769.84 502.40 C 769.04 501.91 768.87 502.38 769.27 503.94 C 769.76 505.80 769.53 506.11 767.93 505.69 C 766.87 505.42 765.71 505.67 765.35 506.25 C 764.98 506.85 765.16 507.02 765.78 506.64 C 766.37 506.27 767.12 506.38 767.43 506.88 C 767.74 507.38 767.27 508.07 766.38 508.41 C 765.18 508.87 765.05 509.35 765.87 510.34 C 766.70 511.35 766.25 512.34 763.98 514.52 C 762.34 516.09 760.99 516.95 760.97 516.44 C 760.95 515.92 760.47 516.31 759.89 517.31 C 759.06 518.72 758.54 518.86 757.43 517.94 C 755.65 516.46 752.62 517.56 753.33 519.42 C 753.76 520.53 753.27 520.65 751.00 520.00 C 748.75 519.35 748.24 519.47 748.66 520.56 C 749.05 521.57 748.37 521.88 746.10 521.72 C 744.40 521.60 743.00 521.16 743.00 520.75 C 743.00 520.34 739.85 520.00 736.00 520.00 C 731.74 520.00 729.00 520.41 729.00 521.06 C 729.00 521.64 728.60 521.87 728.11 521.57 C 727.62 521.26 726.54 522.05 725.72 523.30 C 724.57 525.07 724.25 528.51 724.36 538.30 C 724.44 545.28 724.11 551.00 723.64 551.00 C 723.17 551.00 723.00 551.56 723.26 552.25 C 723.62 553.18 721.75 553.50 715.87 553.50 L 708.00 553.50 L 708.00 509.88ZM 733.73 508.45 C 736.11 508.35 738.29 508.66 738.58 509.14 C 739.30 510.29 745.12 510.21 747.00 509.01 C 748.03 508.36 747.32 508.25 744.75 508.66 C 742.48 509.02 741.00 508.86 741.00 508.24 C 741.00 507.68 742.24 507.02 743.75 506.76 C 745.26 506.51 747.17 506.12 748.00 505.90 C 748.85 505.67 749.38 506.07 749.23 506.82 C 749.07 507.55 749.42 507.86 749.99 507.51 C 750.56 507.15 750.75 506.41 750.41 505.85 C 750.07 505.30 750.75 503.95 751.92 502.86 C 753.09 501.77 753.74 500.38 753.36 499.77 C 752.93 499.07 753.24 498.88 754.19 499.24 C 755.45 499.73 755.64 498.97 755.30 494.68 C 755.08 491.85 754.24 488.82 753.44 487.94 C 752.65 487.06 752.30 486.04 752.66 485.67 C 753.03 485.30 752.61 485.00 751.72 485.00 C 750.84 485.00 749.49 484.10 748.72 483.01 C 747.95 481.91 747.00 481.33 746.61 481.73 C 746.21 482.12 745.56 481.91 745.15 481.25 C 744.62 480.39 741.61 480.23 734.22 480.68 L 724.01 481.30 L 724.29 493.15 C 724.50 502.40 724.92 505.43 726.20 506.92 C 727.10 507.97 727.54 509.17 727.17 509.58 C 726.80 509.99 727.16 509.94 727.96 509.47 C 728.76 509.01 731.36 508.55 733.73 508.45Z"/></g>
<g fill="#173752FF">
<path d="M 524.43 437.10 C 524.12 436.78 520.85 436.67 517.18 436.83 L 510.50 437.14 L 510.50 395.32 L 510.50 353.50 L 519.00 353.50 L 527.50 353.50 L 527.18 378.46 C 526.86 403.23 527.35 411.66 528.97 409.05 C 529.46 408.26 530.31 408.06 531.14 408.56 C 532.25 409.23 532.27 409.10 531.26 407.85 C 529.98 406.27 530.51 404.99 532.42 405.02 C 533.01 405.02 532.83 405.47 532.00 406.00 C 531.17 406.53 530.90 406.98 531.39 406.98 C 532.52 407.00 536.38 402.70 536.87 400.88 C 537.07 400.12 537.34 398.38 537.46 397.00 C 537.83 392.95 537.93 392.76 539.47 393.35 C 540.28 393.66 541.21 393.47 541.54 392.94 C 541.87 392.41 542.63 392.27 543.22 392.64 C 543.86 393.03 544.02 392.84 543.61 392.18 C 543.22 391.55 543.39 390.14 543.98 389.04 C 544.85 387.40 544.77 387.15 543.51 387.63 C 540.83 388.66 542.81 385.63 546.02 383.80 C 547.66 382.86 548.96 381.51 548.92 380.80 C 548.86 379.78 548.73 379.77 548.34 380.76 C 548.06 381.45 547.38 381.74 546.84 381.40 C 546.29 381.06 547.57 379.19 549.67 377.25 C 551.87 375.21 552.99 373.53 552.31 373.29 C 551.48 373.00 551.63 372.29 552.81 370.91 C 553.74 369.82 554.50 368.42 554.50 367.80 C 554.50 367.18 555.06 366.48 555.75 366.25 C 556.57 365.98 556.80 366.46 556.41 367.67 C 555.92 369.15 556.01 369.22 556.85 368.03 C 557.44 367.20 557.51 366.12 557.03 365.53 C 555.91 364.18 558.51 360.58 559.96 361.47 C 560.56 361.85 560.99 361.78 560.91 361.32 C 560.52 359.11 561.10 357.94 562.25 358.63 C 562.98 359.07 562.87 358.60 562.00 357.50 C 560.64 355.80 560.66 355.69 562.22 356.27 C 563.16 356.62 564.21 356.47 564.54 355.93 C 564.88 355.39 564.78 355.07 564.32 355.23 C 563.87 355.38 563.39 355.05 563.27 354.50 C 563.04 353.54 579.93 353.67 580.95 354.64 C 581.20 354.88 581.45 372.94 581.50 394.78 C 581.55 416.63 581.80 435.18 582.05 436.00 C 582.34 436.97 581.97 437.35 581.00 437.07 C 577.24 436.00 570.74 435.89 567.98 436.86 L 564.94 437.92 L 565.22 408.96 C 565.48 382.32 565.36 380.00 563.81 380.00 C 561.63 380.00 560.38 382.00 561.96 382.97 C 562.84 383.52 562.74 383.88 561.57 384.33 C 560.70 384.67 560.10 385.46 560.24 386.10 C 560.38 386.73 559.87 387.48 559.11 387.75 C 558.26 388.06 557.99 387.82 558.42 387.13 C 558.80 386.51 558.87 386.00 558.57 386.00 C 558.27 386.00 556.83 387.89 555.37 390.20 C 553.60 393.01 553.11 394.54 553.91 394.80 C 554.71 395.07 554.50 395.69 553.30 396.68 C 552.31 397.49 552.10 397.84 552.84 397.46 C 553.58 397.08 552.95 398.62 551.46 400.89 C 548.45 405.43 545.77 406.64 548.44 402.25 L 550.12 399.50 L 548.02 401.91 C 546.63 403.51 546.26 404.66 546.91 405.31 C 548.27 406.67 546.26 410.31 544.52 409.65 C 542.66 408.93 541.81 410.07 543.08 411.59 C 543.85 412.52 543.58 413.42 542.07 414.93 C 540.93 416.07 540.03 417.33 540.08 417.73 C 540.12 418.12 539.55 418.61 538.83 418.80 C 537.77 419.08 537.78 418.96 538.86 418.20 C 539.69 417.61 539.83 417.01 539.21 416.63 C 537.72 415.71 536.97 418.56 538.33 420.02 C 539.23 421.00 539.21 421.13 538.25 420.59 C 537.56 420.20 537.00 420.39 537.00 421.00 C 537.00 421.61 536.58 421.86 536.07 421.54 C 535.56 421.23 534.85 421.44 534.49 422.01 C 534.14 422.58 534.22 422.99 534.68 422.91 C 536.91 422.52 537.20 423.15 535.44 424.57 C 534.37 425.44 534.13 425.82 534.90 425.42 C 535.86 424.92 536.07 425.08 535.55 425.91 C 535.14 426.59 534.10 426.87 533.26 426.55 C 532.05 426.08 531.96 426.25 532.85 427.32 C 534.03 428.75 533.43 430.01 531.58 429.98 C 530.99 429.98 531.17 429.53 532.00 429.00 C 532.83 428.47 533.01 428.02 532.42 428.02 C 530.55 427.99 529.97 429.26 531.17 430.71 C 532.09 431.82 531.87 432.22 530.08 432.69 C 528.39 433.13 528.16 433.49 529.17 434.12 C 530.16 434.76 530.19 434.97 529.25 434.98 C 528.56 434.99 528.00 435.60 528.00 436.33 C 528.00 437.66 525.52 438.19 524.43 437.10Z"/></g>
<g fill="#173752FF">
<path d="M 612.00 436.90 C 608.98 436.44 605.26 436.30 603.75 436.61 L 601.00 437.16 L 601.00 395.28 L 601.00 353.41 L 607.75 353.76 C 611.46 353.95 615.09 354.20 615.81 354.30 C 616.83 354.46 617.14 357.94 617.16 369.70 L 617.20 384.90 L 622.46 385.99 C 632.34 388.04 657.00 386.20 657.00 383.41 C 657.00 383.12 656.44 383.20 655.75 383.59 C 654.75 384.15 654.75 384.02 655.75 382.95 C 657.32 381.25 657.39 379.64 655.85 380.60 C 655.08 381.07 654.96 380.87 655.50 380.00 C 655.95 379.28 656.35 373.25 656.41 366.59 L 656.50 354.50 L 663.98 354.20 C 669.11 354.00 671.00 353.61 669.98 352.97 C 668.98 352.34 668.91 352.03 669.75 352.02 C 670.44 352.01 671.31 351.99 671.69 351.97 C 672.07 351.96 672.48 352.63 672.60 353.48 C 672.72 354.32 672.45 354.78 671.98 354.49 C 671.52 354.20 670.86 354.42 670.51 354.98 C 670.16 355.54 670.36 356.00 670.94 356.00 C 671.67 356.00 671.95 368.04 671.84 394.75 C 671.76 416.06 671.36 431.25 670.97 428.50 L 670.25 423.50 L 670.30 429.19 C 670.32 432.33 670.76 434.80 671.29 434.69 C 671.81 434.59 672.37 435.31 672.54 436.31 C 672.78 437.74 672.55 437.87 671.46 436.97 C 670.47 436.15 668.06 436.08 663.03 436.73 C 655.76 437.67 654.58 437.49 655.72 435.65 C 656.08 435.06 656.33 427.13 656.27 418.04 L 656.17 401.50 L 652.83 400.36 C 649.29 399.16 624.63 399.27 619.75 400.52 L 617.00 401.22 L 617.00 419.17 C 617.00 432.48 617.30 436.93 618.15 436.40 C 618.87 435.96 619.04 436.13 618.60 436.85 C 618.20 437.48 617.80 437.94 617.69 437.88 C 617.59 437.81 615.02 437.37 612.00 436.90Z"/></g>
</svg>
